<svg xmlns="http://www.w3.org/2000/svg" viewBox="0 0 101.32 59.61"><defs><style>.cls-1{fill:#1e2546;}.cls-1,.cls-2,.cls-4{stroke:#1e2546;}.cls-1,.cls-2,.cls-3,.cls-4{stroke-miterlimit:10;}.cls-2,.cls-3,.cls-4{fill:none;}.cls-3{stroke:#1d1d1b;}.cls-3,.cls-4{stroke-linecap:round;}.cls-5{fill:#fff;}</style></defs><title>briller</title><g id="Lag_2" data-name="Lag 2"><circle class="cls-1" cx="18.92" cy="43.53" r="15.58"/><circle class="cls-1" cx="62.71" cy="43.53" r="15.58"/><path class="cls-2" d="M443.25,210.38s8.63-5.65,13.89,0" transform="translate(-409.38 -171.25)"/><path class="cls-3" d="M510.2,184.51" transform="translate(-409.38 -171.25)"/><path class="cls-4" d="M487.88,213.38h0a2.51,2.51,0,0,0,2.51-2.51h0l15.16-35.2s3.58-2.58,4.63,5.84" transform="translate(-409.38 -171.25)"/><path class="cls-4" d="M412.72,213.38h-1a1.88,1.88,0,0,1-1.88-1.88h0a1.89,1.89,0,0,1,.17-.78l17-37.34a1.88,1.88,0,0,1,.75-.85c1.38-.8,5-2.31,5.93,3.56a1.52,1.52,0,0,1,0,.21" transform="translate(-409.38 -171.25)"/></g><g id="Lag_3" data-name="Lag 3"><path class="cls-5" d="M418.4,216.65a2.77,2.77,0,0,1,.76,0,7.69,7.69,0,0,1,1.06.56,15.65,15.65,0,0,1,2.23,1.39,3.27,3.27,0,0,0,1.68.79,1.56,1.56,0,0,0,1.65-1.19c.31-1.24-.59-3-1.11-4.06a15.68,15.68,0,0,0-1.42-2.09,5.25,5.25,0,0,1-1-1.59L421,212c-.27,0-.17-.09-.12,0a2.9,2.9,0,0,0,.25.36,6.74,6.74,0,0,0,.84,1,27.76,27.76,0,0,0,2.22,1.84c1.23.94,2.59,2.61,4.27,1.82a1.23,1.23,0,0,0,.62-1.08c0-1.42-.76-2.9-1.24-4.2-.27-.72-.55-1.44-.82-2.15a8.83,8.83,0,0,1-.65-2l-2.13.88a30.78,30.78,0,0,1,2.46,3.22,23.69,23.69,0,0,0,2,2.33,2.21,2.21,0,0,0,2.8.62,1.82,1.82,0,0,0,.76-1.54,6.9,6.9,0,0,0-.09-.78c0,.08,0,0,0-.11,0-.37-.11-.21-.37.48H430.6c.46.24.71.7,1.07,1.05s1,.63,1.43,1c1.22,1,3-.72,1.77-1.76a14.78,14.78,0,0,1-1.81-1.43c-.51-.59-1.28-1.39-2.16-1.15a1.65,1.65,0,0,0-1.16,1.55,5.42,5.42,0,0,0,.07.89c0-.1,0,.12,0,.12.1.25-.05.08,0,0l.45-.45a1.37,1.37,0,0,1,.5,0s-.19-.15-.21-.17c-.17-.2-.35-.38-.52-.59-.38-.47-.82-.88-1.21-1.35-1-1.18-1.72-2.58-2.82-3.68-.71-.71-2.25-.23-2.14.89a17.64,17.64,0,0,0,1.34,4.21l.83,2.28a5.06,5.06,0,0,1,.54,1.84l.62-1.08-.13.06.63-.17c-.33,0,.12.12-.05,0l-.27-.18c-.27-.21-.51-.45-.78-.65l-2.21-1.77a8.28,8.28,0,0,1-1.41-1.49,2.47,2.47,0,0,0-2-1.18,1.26,1.26,0,0,0-1.2,1.58c.27,1.24,1.39,2.39,2.13,3.38a7.86,7.86,0,0,1,1,2.12c.07.2.15.41.21.62s.05.23.1.33c.14.29-.12.17.09-.12l.45-.45c.65.06.81,0,.47-.14-.1,0-.19-.12-.29-.18s-.35-.27-.53-.39a15.07,15.07,0,0,0-1.66-1.06l-1.59-.84a3.63,3.63,0,0,0-1.85-.23c-1.6.07-1.61,2.57,0,2.5Z" transform="translate(-409.38 -171.25)"/><path class="cls-5" d="M464.51,217.71a1.64,1.64,0,0,1,1.12.56c.46.36.93.66,1.38,1a1.27,1.27,0,0,0,1.77,0c1-1.09.46-2.52.29-3.81a14,14,0,0,0-.42-2.22,7.78,7.78,0,0,1-.45-2.13l-2.13.88c1,.77,1.85,1.66,2.82,2.44s2,1.47,3,2.2a1.26,1.26,0,0,0,1.88-1.08c0-1.47-1.16-2.61-2-3.67-.29-.36-.59-.71-.88-1.06a6.55,6.55,0,0,1-.45-.59,1.42,1.42,0,0,0-.21-.33l0,.06c-.06-.24-.07-.14,0,.3l-1.2.91c.22,0,.34.19.5.33a9.11,9.11,0,0,0,.92.72c.66.46,1.24,1,1.87,1.53a25.46,25.46,0,0,0,3.94,2.85,1.61,1.61,0,0,0,2.09-.47,2.74,2.74,0,0,0,.36-1.88c-.05-.69-.05-1.38-.12-2.07a12.63,12.63,0,0,0-.17-1.36c0-.12-.06-.24-.09-.36s-.07-.55-.12-.32l-1.53.88c-.15,0-.22,0-.28-.15a1.15,1.15,0,0,0,.23.21l.45.47a10.37,10.37,0,0,0,1.24,1.15c1.11.85,2.59.71,3-.77a1.25,1.25,0,0,0-2.41-.67.87.87,0,0,1,.35-.36l.67-.09-.08,0s.22.12,0,0-.13-.1,0,0a11.24,11.24,0,0,1-.87-.82,4.25,4.25,0,0,0-1.65-1.33,1.26,1.26,0,0,0-1.54.87,11.28,11.28,0,0,0,.32,3c0,.46,0,.93.06,1.4,0,.19,0,.39,0,.58s0,.2,0,.3c0,.29,0,.25.1-.11l.56-.32-.16,0h.66a3.94,3.94,0,0,1-.87-.54c-.39-.25-.77-.53-1.14-.81-.73-.56-1.47-1.13-2.17-1.74s-1.3-1-1.91-1.54a3.18,3.18,0,0,0-2.27-1.06,1.32,1.32,0,0,0-1.21.92c-.42,1.24.9,2.53,1.62,3.37.54.64,1.84,1.85,1.86,2.59l1.88-1.08c-.9-.66-1.83-1.28-2.69-2s-1.69-1.55-2.6-2.25a1.27,1.27,0,0,0-2.14.88,16.48,16.48,0,0,0,.74,3.55c.12.6.18,1.2.26,1.8,0,.3.1.6.14.9s-.1.46.17.15h1.77c-.62-.51-1.27-1-1.9-1.45a3.54,3.54,0,0,0-2.37-.87,1.25,1.25,0,0,0,0,2.5Z" transform="translate(-409.38 -171.25)"/></g></svg>