<svg xmlns="http://www.w3.org/2000/svg" viewBox="0 0 141.73 141.73"><defs><style>.cls-1{fill:none;stroke:#1d1d1b;stroke-miterlimit:10;stroke-width:2px;}</style></defs><title>comet</title><g id="Lag_3" data-name="Lag 3"><circle class="cls-1" cx="68.1" cy="73.95" r="66"/><ellipse class="cls-1" cx="37.22" cy="49.37" rx="10.64" ry="5.47" transform="translate(-22.05 66.96) rotate(-69.52)"/><circle class="cls-1" cx="37.82" cy="96.67" r="7.83"/><circle class="cls-1" cx="52.87" cy="114.08" r="4.11"/><circle class="cls-1" cx="104.12" cy="57.51" r="4.23"/><ellipse class="cls-1" cx="97.34" cy="97.39" rx="8.51" ry="5.33" transform="translate(-38.45 74.56) rotate(-35.47)"/><ellipse class="cls-1" cx="91.55" cy="31.22" rx="5.08" ry="7.01" transform="translate(39.71 112.87) rotate(-76.42)"/><path class="cls-1" d="M56.15,9V6a1.45,1.45,0,0,1,.42-1l2.87-2.87a1.51,1.51,0,0,1,1.07-.45H73.68a1.7,1.7,0,0,1,1.2.5l2.61,2.61a1.25,1.25,0,0,1,.36.88v3"/><path class="cls-1" d="M133,62.13h2.26a1.45,1.45,0,0,1,1,.42l2.87,2.87a1.52,1.52,0,0,1,.44,1.07V79.66a1.69,1.69,0,0,1-.49,1.19l-2.61,2.61a1.23,1.23,0,0,1-.88.37h-2.29"/><path class="cls-1" d="M8.93,67.48s8,6.89,6.34,13.42"/><path class="cls-1" d="M14.19,63.85s4.89,3.45,3.8,6.89"/><path class="cls-1" d="M34.69,59.51s6.15,5.25,4,11.23"/><path class="cls-1" d="M41,39.41s10.77.87,10.22-5.11"/><path class="cls-1" d="M43.77,45.18s9.1,1.81,8-3.81"/><path class="cls-1" d="M41,56.3s7.32,4.9,3.33,8.7"/><path class="cls-1" d="M98.05,33.15s.71,9.29,3.67,8.75"/><path class="cls-1" d="M84.73,29.57s-6.18,4.91-11.44,2.56"/><path class="cls-1" d="M67,63.85s6.34,3.45,10.85-6.34"/><path class="cls-1" d="M104.28,92.45s-3.07-5.93,2.37-11.55"/><path class="cls-1" d="M90.41,102.33a47.84,47.84,0,0,0-11.4-2"/><path class="cls-1" d="M96.27,91.86s-3.4-5.7-1.94-11"/><path class="cls-1" d="M72.43,67.3s6.6.12,7.69-6.65"/><path class="cls-1" d="M51.87,26S55.27,19.8,67,20.88"/><path class="cls-1" d="M58.06,26s7-2.54,10,0"/><polyline class="cls-1" points="116.44 49.37 116.44 62.13 120.43 63.85 120.43 70.74"/><path class="cls-1" d="M24,123.72l-1.77,1.41a1.45,1.45,0,0,1-1.06.31l-4-.45a1.54,1.54,0,0,1-1-.56L7.89,114.14a1.7,1.7,0,0,1-.36-1.25l.41-3.66a1.27,1.27,0,0,1,.46-.84L10.19,107h0"/><path class="cls-1" d="M68.1,122.05s13.16,1.36,16.61-5.84"/><path class="cls-1" d="M73.29,125.45s10.64.59,16-7.42"/></g></svg>