<?xml version="1.0" encoding="utf-8"?>
<!-- Generator: Adobe Illustrator 23.0.2, SVG Export Plug-In . SVG Version: 6.00 Build 0)  -->
<svg version="1.1" id="Lag_1" xmlns="http://www.w3.org/2000/svg" xmlns:xlink="http://www.w3.org/1999/xlink" x="0px" y="0px"
	 viewBox="0 0 172.2 187.7" style="enable-background:new 0 0 172.2 187.7;" xml:space="preserve">
<style type="text/css">
	.st0{fill:none;stroke:#07051B;stroke-width:6;stroke-linecap:round;stroke-linejoin:round;}
</style>
<title>demokrati</title>
<g id="Layer_2">
	<ellipse class="st0" cx="40.6" cy="43" rx="32.5" ry="28.4"/>
	<ellipse class="st0" cx="124" cy="34" rx="34" ry="31"/>
	<polyline class="st0" points="32.8,70.6 32.8,139.4 14.2,176.5 3,176.5 	"/>
	<polyline class="st0" points="103.4,58.6 83.4,143.1 164.6,137.5 144.6,58.6 	"/>
	<line class="st0" x1="116.4" y1="22.3" x2="116.4" y2="31.9"/>
	<line class="st0" x1="124" y1="22.3" x2="124" y2="34"/>
	<path class="st0" d="M103.8,34c0,0,19.3,43.7,37.1-2"/>
	<line class="st0" x1="36.9" y1="33.6" x2="36.9" y2="43.2"/>
	<line class="st0" x1="44.5" y1="33.6" x2="44.5" y2="45.3"/>
	<path class="st0" d="M24.2,45.2c0,0,19.3,43.7,37.1-2"/>
</g>
<g id="Layer_3">
	<polyline class="st0" points="32.8,139.4 40.6,176.5 52.8,176.5 	"/>
	<polyline class="st0" points="8.1,121.1 32.8,82.6 59.3,126.2 	"/>
	<polyline class="st0" points="114,141 116.4,182.2 99.7,182.2 	"/>
	<polyline class="st0" points="140.8,139.2 140.8,184.7 154,184.7 	"/>
	<line class="st0" x1="147.4" y1="69.3" x2="169.2" y2="117.2"/>
	<line class="st0" x1="101.7" y1="64.9" x2="80.8" y2="123.3"/>
</g>
</svg>
