<?xml version="1.0" encoding="utf-8"?>
<!-- Generator: Adobe Illustrator 23.0.2, SVG Export Plug-In . SVG Version: 6.00 Build 0)  -->
<svg version="1.1" id="Lag_1" xmlns="http://www.w3.org/2000/svg" xmlns:xlink="http://www.w3.org/1999/xlink" x="0px" y="0px"
	 viewBox="0 0 268.4 259.7" style="enable-background:new 0 0 268.4 259.7;" xml:space="preserve">
<style type="text/css">
	.st0{fill:none;stroke:#07051B;stroke-width:9;stroke-linecap:round;stroke-miterlimit:10;}
</style>
<title>frihed</title>
<g id="Layer_2">
	<path class="st0" d="M159.4,253.5V198c0,0,15.6-6.3,20-28v-61c0,0,1-10.4-10.5-10.4h-25.1c0,0-12.5,0.3-12.5,12.5
		c0,12.1,10.2,12,10.2,12h13.9v17.5c0,3.1-2.3,5.7-5.3,6.2c-9.6,1.6-28.9,8.4-29.1,37.6"/>
	<path class="st0" d="M100.5,255.2v-60.1c0,0-14-8.3-14.3-32.9c-0.3-20.1-0.1-46,0-56.1c0-2.6-0.1-8.5,1.6-12.4
		c2.8-6.2,10.3-8.7,18.7,0c0,0,9.3-16.4,22.6-3.7c0,0,7.3-14.4,21-2.9c0,0,14-12.5,21.3,2.3c0,0,2,6.3,1.3,9.1"/>
</g>
<g id="Layer_3">
	<path class="st0" d="M106.5,93.7v43.9c0,0-8.9,16-20.4-1"/>
	<path class="st0" d="M129.1,90v46.5c0,0-7,17-22.6,1.2"/>
	<line class="st0" x1="150.1" y1="87.1" x2="150.1" y2="98.6"/>
	<path class="st0" d="M150.1,123.3v13.5c0,0-11.5,16.3-21-0.3"/>
	<path class="st0" d="M155.3,141.6c0,0-3.4,0.8-5.2-4.8"/>
	<line class="st0" x1="92.3" y1="61.7" x2="71.4" y2="21.4"/>
	<line class="st0" x1="134.3" y1="4.5" x2="134.3" y2="49.7"/>
	<line class="st0" x1="177" y1="61.7" x2="199.6" y2="23.6"/>
	<line class="st0" x1="207.6" y1="93.7" x2="245.3" y2="72.3"/>
	<line class="st0" x1="218.7" y1="139.2" x2="263.9" y2="139.2"/>
	<line class="st0" x1="207.6" y1="183.6" x2="245.3" y2="207.1"/>
	<line class="st0" x1="63" y1="183.6" x2="25.3" y2="207.1"/>
	<line class="st0" x1="52.4" y1="139.2" x2="4.5" y2="139.2"/>
	<path class="st0" d="M63,93.7c-1.8-0.1-42.6-24.5-42.6-24.5"/>
</g>
</svg>
