<svg xmlns="http://www.w3.org/2000/svg" viewBox="0 0 141.73 141.73"><defs><style>.cls-1,.cls-2,.cls-3{fill:none;stroke-width:2px;}.cls-1,.cls-2{stroke:#1d1d1b;stroke-miterlimit:10;}.cls-2,.cls-3{stroke-linecap:round;}.cls-3{stroke:#000;stroke-linejoin:round;}</style></defs><title>glasses</title><g id="Lag_3" data-name="Lag 3"><circle class="cls-1" cx="29.15" cy="84.61" r="21.01"/><circle class="cls-1" cx="88.21" cy="84.61" r="21.01"/><path class="cls-1" d="M49.31,78.69s11.64-7.63,18.74,0"/><path class="cls-2" d="M109.52,82.73h0c1.87,0,2.52-1.12,3.39-3.38h0l19.42-45.12a3.23,3.23,0,0,1,5.89-.12,19.9,19.9,0,0,1,1.38,5.63"/><path class="cls-2" d="M8.13,82.73H6.84A2.54,2.54,0,0,1,4.3,80.19h0a2.55,2.55,0,0,1,.23-1L26.89,30a5.65,5.65,0,0,1,4.19-3.32c2.09-.33,4.53.54,5.36,5.8l0,.28"/><path class="cls-3" d="M15.8,85.46a6.29,6.29,0,0,1,1.37,0,3.43,3.43,0,0,1,1,.52c.63.34,1.31.59,1.92,1s1.39.87,2.06,1.36c.37.27,1.45,1.16,1.88.75s-.18-1.86-.31-2.24a16,16,0,0,0-1.13-2.7c-.41-.75-1-1.36-1.5-2.08s-1.59-2-1.69-2.81c.84-.07,1.38,1,1.82,1.61a16.74,16.74,0,0,0,2.45,2.24c.86.77,1.81,1.38,2.68,2.12.47.4,1.59,1.52,2.26,1.06a8.28,8.28,0,0,0-.84-3.08c-.42-1.17-.85-2.34-1.28-3.51a28.88,28.88,0,0,1-1-2.74A7.77,7.77,0,0,1,24.92,75c.83.78,1.47,1.91,2.24,2.77.44.5.73,1.11,1.12,1.64a22.24,22.24,0,0,0,1.65,1.85c.44.47,1.7,2.4,2.65,1.89s-.35-2.41.52-2.72c.69.28,1.27,1.16,1.79,1.68s1.35.8,1.92,1.35"/><path class="cls-3" d="M78,86.88A3.12,3.12,0,0,1,80.48,88a5.17,5.17,0,0,0,.92.63,9.84,9.84,0,0,1,1.16.93c.48-.4.28-1.29.19-1.83-.19-1.15-.28-2.32-.5-3.47-.26-1.42-1-3.06-1-4.51,1.33,1,2.5,2.23,3.81,3.28s2.44,1.79,3.67,2.7c.07-1.28-1.87-3.23-2.56-4.15-.45-.6-2.55-2.77-2.19-3.43.87-.13,1.4.51,2,1s1.1.77,1.61,1.2,1,.88,1.47,1.28a48,48,0,0,0,4.84,3.58c.48.28,1,.86,1.36.25s0-2,0-2.53a18.41,18.41,0,0,0-.24-3.15c-.09-.51-.47-1.33-.29-1.82.7.12,3.71,4.54,4.23,2.41"/></g></svg>