<svg id="Lag_2" data-name="Lag 2" xmlns="http://www.w3.org/2000/svg" viewBox="0 0 120.77 121.41"><defs><style>.cls-1{fill:none;stroke:#1e2546;stroke-miterlimit:10;}</style></defs><title>komet</title><circle class="cls-1" cx="57.97" cy="63.44" r="57.47"/><ellipse class="cls-1" cx="467.52" cy="295.26" rx="9.26" ry="4.76" transform="translate(-409.1 376.68) rotate(-69.52)"/><circle class="cls-1" cx="31.61" cy="83.23" r="6.82"/><circle class="cls-1" cx="44.71" cy="98.39" r="3.58"/><circle class="cls-1" cx="89.34" cy="49.12" r="3.68"/><ellipse class="cls-1" cx="519.87" cy="337.08" rx="7.41" ry="4.64" transform="translate(-535.55 111.02) rotate(-35.47)"/><ellipse class="cls-1" cx="514.83" cy="279.46" rx="4.42" ry="6.11" transform="translate(-314.13 461.05) rotate(-76.42)"/><path class="cls-1" d="M484,260.13v-2.62a1.26,1.26,0,0,1,.37-.9l2.5-2.49a1.31,1.31,0,0,1,.93-.39h11.47a1.46,1.46,0,0,1,1,.43l2.27,2.27a1.07,1.07,0,0,1,.32.77v2.62" transform="translate(-436.43 -253.23)"/><path class="cls-1" d="M551,306.37h2a1.3,1.3,0,0,1,.89.37l2.5,2.5a1.35,1.35,0,0,1,.38.94v11.46a1.44,1.44,0,0,1-.43,1L554,325a1.09,1.09,0,0,1-.77.31h-2" transform="translate(-436.43 -253.23)"/><path class="cls-1" d="M442.88,311s6.95,6,5.52,11.68" transform="translate(-436.43 -253.23)"/><path class="cls-1" d="M447.46,307.88s4.26,3,3.31,6" transform="translate(-436.43 -253.23)"/><path class="cls-1" d="M465.32,304.09s5.35,4.58,3.45,9.79" transform="translate(-436.43 -253.23)"/><path class="cls-1" d="M470.76,286.59s9.38.76,8.91-4.45" transform="translate(-436.43 -253.23)"/><path class="cls-1" d="M473.22,291.62s7.92,1.57,7-3.32" transform="translate(-436.43 -253.23)"/><path class="cls-1" d="M497.19,297" transform="translate(-436.43 -253.23)"/><path class="cls-1" d="M470.76,301.3s6.38,4.26,2.91,7.58" transform="translate(-436.43 -253.23)"/><path class="cls-1" d="M520.49,281.14s.62,8.09,3.2,7.62" transform="translate(-436.43 -253.23)"/><path class="cls-1" d="M508.89,278s-5.38,4.28-10,2.23" transform="translate(-436.43 -253.23)"/><path class="cls-1" d="M493.45,307.88s5.53,3,9.45-5.53" transform="translate(-436.43 -253.23)"/><path class="cls-1" d="M525.91,332.78A8.89,8.89,0,0,1,528,322.72" transform="translate(-436.43 -253.23)"/><path class="cls-1" d="M513.84,341.38a42.12,42.12,0,0,0-9.93-1.77" transform="translate(-436.43 -253.23)"/><path class="cls-1" d="M518.94,332.27s-3-5-1.69-9.55" transform="translate(-436.43 -253.23)"/><path class="cls-1" d="M498.18,310.88a6.73,6.73,0,0,0,6.7-5.79" transform="translate(-436.43 -253.23)"/><path class="cls-1" d="M480.27,274.88s3-5.37,13.18-4.42" transform="translate(-436.43 -253.23)"/><path class="cls-1" d="M485.67,274.88s6.1-2.21,8.73,0" transform="translate(-436.43 -253.23)"/><polyline class="cls-1" points="100.08 42.03 100.08 53.14 103.55 54.65 103.55 60.65"/><path class="cls-1" d="M456,360l-1.54,1.23a1.23,1.23,0,0,1-.92.27l-3.51-.39a1.35,1.35,0,0,1-.89-.49l-7.16-9a1.52,1.52,0,0,1-.31-1.09l.36-3.19a1.08,1.08,0,0,1,.4-.73l1.56-1.24h0" transform="translate(-436.43 -253.23)"/><path class="cls-1" d="M494.4,358.56s11.47,1.18,14.47-5.09" transform="translate(-436.43 -253.23)"/><path class="cls-1" d="M498.93,361.52s9.26.51,13.9-6.46" transform="translate(-436.43 -253.23)"/></svg>