<?xml version="1.0" encoding="utf-8"?>
<!-- Generator: Adobe Illustrator 23.0.2, SVG Export Plug-In . SVG Version: 6.00 Build 0)  -->
<svg version="1.1" id="Layer_2" xmlns="http://www.w3.org/2000/svg" xmlns:xlink="http://www.w3.org/1999/xlink" x="0px" y="0px"
	 viewBox="0 0 200.4 155.9" style="enable-background:new 0 0 200.4 155.9;" xml:space="preserve">
<style type="text/css">
	.st0{fill:#07051B;}
</style>
<title>læring</title>
<path class="st0" d="M111.9,144.8c9.6,9.9,24.1,11.6,37.2,11c3.5-0.2,7.1-0.4,10.6-0.8c3.7-0.2,7.3-0.8,10.8-1.7
	c6.7-1.6,12.3-6.2,15.2-12.5c3.4-6.9,4.6-14.7,3.3-22.4c-0.3-2-2.8-3.1-4.6-2.6c-2.1,0.6-2.9,2.6-2.6,4.6c0.8,5.2,0.1,10.6-2,15.4
	c-1,2.5-2.5,4.8-4.4,6.7c-1.8,1.6-3.9,2.8-6.2,3.4c-6,1.8-12.3,1.9-18.6,2.3c-6.1,0.4-12.3,0.5-18.3-0.8c-1.5-0.3-3-0.7-4.5-1.2
	c-1.3-0.4-2.5-0.9-3.7-1.6c-1.3-0.7-2.6-1.4-3.8-2.3c-1.1-0.8-2.2-1.8-3.2-2.8c-1.5-1.4-3.9-1.3-5.3,0.2
	C110.6,141.1,110.6,143.4,111.9,144.8L111.9,144.8z"/>
<path class="st0" d="M151.4,111.5c2.8,2.7,5.9,5.1,9.3,7c3.8,1.9,8,2.9,12.2,2.9c6.9,0.3,15.6,0.5,20.4-5.4c2.5-3,3.5-6.8,4.4-10.5
	c1-4.3,1.9-8.6,2.4-13c1.2-8.4-0.1-17-3.6-24.8c-1.8-4-4.5-7.5-8-10.2c-3.7-2.8-8.5-3.7-13-2.5c-2,0.6-3.2,2.6-2.6,4.6
	c0.6,2,2.6,3.2,4.6,2.6c0.4-0.1,0.8-0.2,1.2-0.3c-0.7,0.1,0.6,0,0.6,0c0.4,0,0.8,0,1.2,0.1c-0.5-0.1,0.1,0,0.2,0
	c1.4,0.3,2.7,0.9,3.9,1.8c-0.5-0.4,0.5,0.4,0.5,0.4c0.3,0.3,0.6,0.6,0.9,0.8c0.5,0.5,0.9,1,1.3,1.5c-0.4-0.5,0.4,0.6,0.4,0.5
	c0.2,0.3,0.5,0.7,0.7,1c0.4,0.7,0.8,1.4,1.2,2.1c3,6.1,4.2,13,3.4,19.8c-0.3,3.5-0.9,7.1-1.8,10.5c-0.4,1.6-0.8,3.3-1.2,4.9
	c-0.2,0.6-0.3,1.3-0.5,1.9c-0.1,0.4-0.3,0.7-0.4,1.1s-0.2,0.5-0.1,0.2c-0.1,0.2-0.2,0.5-0.3,0.7c-0.9,2-2.7,3.5-4.8,3.9
	c-0.7,0.2-1.5,0.3-2.2,0.4c0.8-0.1-0.5,0-0.5,0l-0.8,0.1c-1.6,0.1-3.1,0.1-4.7,0.1c-3.6,0-7.4-0.1-10.3-1.5c-3.1-1.6-6-3.7-8.5-6.2
	c-1.5-1.4-3.8-1.4-5.3,0c-1.4,1.5-1.4,3.8,0,5.3L151.4,111.5z"/>
<path class="st0" d="M159.6,109.8c-4.4-0.8-8.3,0.7-11.9,3c-3.5,2.1-6.9,4.3-10.3,6.5l-10.6,6.7c-3.3,2.1-6.7,4.1-9.2,7.2
	c-1,1.4-2.1,2.7-3.4,3.9c-0.1,0.2-0.3,0.3-0.5,0.4c-0.3,0.2-0.7,0.5-1,0.6s-0.7,0.4-1.1,0.6L111,139c-0.6,0.3,0.4-0.1-0.2,0.1
	c-3.3,1.4-6.9,2.1-10.5,2.2c-3.5,0.1-6.9-0.2-10.3-0.9c-3.8-0.7-7.7-1.5-11.5-2.5c-2.9-0.6-5.5-2.3-7.2-4.7c-2-2.9-3.6-6.1-4.8-9.5
	c-0.3-0.9-0.6-1.8-0.8-2.7c-0.1-0.4-0.2-0.8-0.3-1.2c0-0.3-0.1-0.6-0.1-0.8c-0.1-0.8-0.1-1.6-0.1-2.4c0-0.4,0-0.8,0.1-1.2
	c0,0,0.1-0.6,0-0.3s0.1-0.4,0.1-0.5c0.7-3.2,2.4-6.1,4.8-8.3c5.1-5,11.8-9,18.5-12.1c6.5-3.1,13.7-5.3,20.6-8
	c3.7-1.4,7.3-3.1,10.9-4.9c3.6-1.9,6.5-4.2,8-8.1c1.3-3.4,1.3-7.6,1.2-11.2c-0.1-4.1-1.1-8.1-3.8-11.3c-1.3-1.4-2.9-2.5-4.7-3.1
	c-1.8-0.7-4.2,0.8-4.6,2.6c-0.5,2,0.7,4,2.6,4.6c-0.5-0.2,0.2,0.2,0.4,0.3c0.5,0.3,0-0.1,0.4,0.3c0.2,0.3,0.5,0.5,0.7,0.8
	c-0.3-0.4,0.3,0.4,0.3,0.6s0.5,0.9,0.4,0.7s0.2,0.6,0.3,0.8c0.3,0.8,0.4,1.7,0.5,2.6c0.1,1.9,0.1,3.8-0.1,5.7c0,0.8-0.1,1.6-0.2,2.4
	c0.1-0.5-0.1,0.4-0.1,0.6c-0.1,0.4-0.2,0.9-0.4,1.3s0,0.1,0,0c-0.1,0.2-0.2,0.4-0.3,0.5c-0.1,0.2-0.2,0.3-0.3,0.5
	c0,0-0.4,0.5-0.2,0.3c-0.4,0.5-0.9,0.9-1.5,1.3c-1.5,1-3.1,1.8-4.7,2.6c-3.3,1.6-6.6,3-10,4.2c-7.3,2.7-14.6,5.2-21.5,8.7
	c-3.4,1.7-6.7,3.7-9.9,5.9c-3.2,2.1-6.2,4.6-8.9,7.3c-2.8,2.9-4.8,6.4-5.7,10.3c-0.7,3.8-0.6,7.6,0.5,11.3c1.1,3.8,2.7,7.4,4.7,10.9
	c2,3.5,4.3,6.6,7.9,8.5c3.4,1.9,7.1,2.5,10.9,3.4c3.9,0.9,7.8,1.6,11.8,2.1c7.5,0.9,15.9,0,22.5-3.9c1.6-0.9,3.1-2.1,4.4-3.6
	c1.4-1.6,2-2.8,3.5-4.2c1.2-1.1,2.5-2.1,3.9-3c1.7-1.1,3.3-2.1,5-3.2l10.7-6.6c3.4-2.1,6.7-4.6,10.3-6.3c0.6-0.3,1.3-0.5,1.9-0.6
	c0.2-0.1,0.4-0.1,0.6-0.1c-0.1,0-0.4,0,0,0h0.6c0.1,0,0.7,0.1,0.3,0c1.9,0.4,4.1-0.5,4.6-2.6C162.6,112.6,161.7,110.2,159.6,109.8
	L159.6,109.8z"/>
<path class="st0" d="M93.1,121.7c0.3-0.7,0.7-1.4,1.1-2.1c0.2-0.3,0.4-0.7,0.6-1c-0.4,0.5,0.4-0.5,0.4-0.5c0.4-0.5,0.9-1,1.4-1.4
	c0.5-0.5,1.1-1,1.7-1.4c2.5-1.8,5.3-3.1,8.2-3.8c1.4-0.4,2.9-0.7,4.3-1l2.4-0.4l1.2-0.2l0.6-0.1c3.3-0.4,6.6-0.7,9.9-1.1
	c3.8-0.5,8-0.7,11-3.3c2.3-2,3.3-4.8,4.8-7.4c0.4-0.7,0.8-1.3,1.2-1.9c-0.4,0.6,0.3-0.4,0.3-0.4c0.3-0.3,0.5-0.5,0.8-0.8
	c0.4-0.4,0.9-0.9,1.3-1.3c0,0,1-0.8,0.4-0.3c0.4-0.3,0.8-0.6,1.2-0.8c0.6-0.4,1.3-0.8,2-1.1l0.7-0.3c0,0,1.1-0.5,0.5-0.2
	c1.5-0.6,3.1-1.1,4.7-1.4l0.7-0.1c0.5-0.1,0.5-0.1,0.1,0l0.8-0.1c1-0.1,2.1-0.1,3.1-0.1c1.8,0,3.6,0.2,5.4,0.5
	c3.9,0.8,7.7,2,11.4,3.7c1.8,1,4,0.4,5.1-1.3c0.9-1.6,0.5-4.3-1.3-5.1c-7.3-3.3-15.2-5.8-23.3-5.2c-6.8,0.5-13.6,3.2-18.3,8.2
	c-1.1,1.2-2.1,2.6-3,4c-0.8,1.4-1.4,2.9-2.2,4.2c-0.1,0.3-0.3,0.5-0.5,0.8s-0.6,0.7-0.2,0.2c-0.2,0.3-0.5,0.5-0.7,0.8
	c0.6-0.5-0.4,0.2-0.5,0.3c-1.6,0.5-3.2,0.8-4.9,1c-2.5,0.4-6.6,0.8-9.7,1.1c-3.6,0.4-7.2,1-10.7,1.9c-7.5,2-15.4,6.3-18.6,13.8
	c-0.8,1.9-0.5,4,1.4,5.1C89.5,124,92.3,123.6,93.1,121.7L93.1,121.7z"/>
<path class="st0" d="M184.2,59.1c2.1-5.6,3.5-11.8,2.7-17.9c-0.7-6-3.6-11.4-8.1-15.4c-4.1-3.4-8.7-6.1-13.7-8.1
	c-2.9-1.3-5.9-2.5-8.9-3.4c-3.3-0.8-6.6-1.2-10-1.3c-3.8-0.1-7.5-0.1-11,1.6c-3,1.4-5.6,4.3-6,7.6c-0.3,1.9,0.5,4.1,2.6,4.6
	c1.8,0.4,4.3-0.5,4.6-2.6c0-0.3,0.1-0.6,0.2-0.9c0-0.1,0.3-0.8,0.1-0.4s0.3-0.5,0.3-0.5s-0.5,0.5,0.1-0.1c0.1-0.1,1.1-1,0.6-0.6
	c0.2-0.2,0.5-0.3,0.8-0.5l0.5-0.3c-0.3,0.1-0.3,0.1-0.1,0c2.4-0.9,4.8-0.7,7.4-0.6c2.7,0,5.4,0.3,8,1c1.3,0.4,2.5,0.8,3.8,1.3l2,0.8
	l0.8,0.3l0.5,0.2c2.1,0.9,4.2,1.8,6.2,2.9c1,0.5,2,1.1,2.9,1.7c0.4,0.3,0.8,0.5,1.3,0.8l0.8,0.5l0.5,0.3c-0.2-0.2-0.2-0.2,0,0
	c0.8,0.7,1.6,1.3,2.3,2.1c0.4,0.4,0.7,0.8,1.1,1.2c0.1,0.1,0.6,0.7,0.2,0.2c0.2,0.2,0.4,0.5,0.5,0.7c1.3,1.9,2.2,4,2.6,6.2
	c0,0.3,0.1,0.6,0.2,0.8c-0.1-0.5,0.1,0.7,0.1,0.7c0,0.7,0.1,1.4,0.1,2.1c0,1.2-0.1,2.5-0.3,3.7c-0.5,3-1.3,5.9-2.4,8.8
	c-0.5,2,0.6,4.1,2.6,4.6C181.6,62.2,183.7,61,184.2,59.1L184.2,59.1z"/>
<path class="st0" d="M100.6,83.2c-0.9-6.8,0.2-13.6,3-19.8c1-1.8,0.4-4.2-1.5-5.2c-0.2-0.1-0.5-0.2-0.8-0.3c-0.2-0.1-0.6-0.3,0,0
	c-0.1-0.1-0.3-0.1-0.4-0.2c-0.4-0.4,0.4,0.4,0,0l-0.3-0.3c-0.1-0.1-0.4-0.5,0,0c-0.1-0.1-0.2-0.3-0.3-0.4c-0.1-0.1-0.2-0.3-0.2-0.4
	c-0.5-0.8,0.1,0.4-0.1-0.2s-0.3-0.8-0.4-1.1c0-0.2-0.1-0.4-0.1-0.7c0,0-0.1-0.6,0-0.2c0-0.3,0-0.6,0-0.9c0-0.5,0-0.9,0-1.4l0.1-0.8
	c0,0,0.1-0.6,0-0.2c0,0.2,0.1-0.7,0.2-1c0.2-0.9,0.5-1.8,0.8-2.7c0-0.1,0.3-0.8,0.2-0.4s0.1-0.2,0.1-0.2c0.2-0.4,0.4-0.8,0.6-1.2
	c0.4-0.8,0.9-1.6,1.5-2.4c0.4-0.6,0.2-0.3,0.1-0.1l0.4-0.4c0.3-0.3,0.6-0.6,0.9-1c0.5-0.5,1.5-1.4,1.8-1.7c1.3-1,2.8-1.7,4.3-2.4
	c3.7-1.2,7.6-1.7,11.5-1.5c4.1,0,8,0,11.6,1.1c1.4,0.4,2.7,1.2,3.6,2.4l0.3,0.4c0.4,0.5-0.3-0.4,0.1,0.1c0.2,0.4,0.5,0.7,0.7,1.1
	s0.3,0.6,0.5,0.9s0.2,0.4,0.3,0.7c-0.2-0.5,0,0.1,0.1,0.3c0.6,1.7,1.1,3.4,1.4,5.2c0.5,2.3,0.5,4.7,2.6,6.2c0.9,0.6,1.9,1.1,3,1.4
	c0.4,0.2,0,0,0,0l0.7,0.3c0.4,0.2,0.9,0.5,1.3,0.8l0.5,0.3c0.5,0.4-0.3-0.3,0.1,0.1s0.7,0.6,1,0.9s0.6,0.6,0.9,1l0.4,0.4l0.2,0.3
	c-0.2-0.2-0.2-0.2,0,0c2.3,3.5,3.7,7.6,3.9,11.8c0.2,2.1,0.2,4.2,0,6.2c0.1-0.7-0.2,0.7-0.2,0.9s-0.1,0.3-0.1,0.5
	c-0.2,0.7,0.1-0.2-0.1,0.2c-0.1,0.1-0.2,0.3-0.2,0.4c-0.3,0.6,0.2-0.1-0.1,0.1l-0.3,0.4c-0.6,0.6,0.5-0.3-0.3,0.2
	c-1.8,1-2.4,3.3-1.3,5.1c1,1.8,3.3,2.4,5.1,1.3l0,0c4.1-2.5,5.3-7.4,5.2-11.9c0-5.3-1-10.6-3-15.5c-1.8-4.2-4.9-7.6-8.8-9.9
	c-1-0.6-2.1-1.1-3.3-1.4l-0.2-0.1c0.3,0.1,0.6,0.4,0.7,0.7c0.7,1,0.4,0.5,0.3,0s-0.2-1.1-0.3-1.7c-0.3-2.1-0.9-4.1-1.5-6.1
	c-1.6-4.4-4.3-8.4-8.7-10.4s-9.6-2.2-14.5-2.3c-9.5-0.2-19.5,1.6-25.8,9.5c-3.3,4.1-5.3,9.1-5.6,14.4c-0.2,5.2,2.1,10.6,7.4,12.4
	L97,59.6c-3.7,8-5,16.9-3.7,25.6c0.3,2,2.8,3.1,4.6,2.6C100.1,87.2,100.9,85.2,100.6,83.2L100.6,83.2z"/>
<path class="st0" d="M129.1,21.3c-0.3,1.7-0.4,3.5-0.5,5.2c0,1.7,0.2,3.5,0.5,5.2c0.3,0.9,0.9,1.7,1.7,2.2c0.9,0.5,1.9,0.6,2.9,0.4
	c0.9-0.3,1.7-0.9,2.2-1.7c0.5-0.9,0.6-1.9,0.4-2.9c-0.1-0.4-0.1-0.8-0.2-1.1l0.1,1c-0.3-2.2-0.3-4.5,0-6.7l-0.1,1
	c0-0.2,0.1-0.4,0.1-0.6c0.2-1,0.1-2-0.4-2.9c-1-1.8-3.3-2.4-5.1-1.4C130,19.6,129.3,20.4,129.1,21.3L129.1,21.3z"/>
<path class="st0" d="M141.7,12.3c-3.9-2.6-7.7-5.3-11.7-7.8c-2-1.3-4.2-2.3-6.5-3c-2.3-0.6-4.6-0.9-7-1c-4.6-0.3-9.3-0.5-13.9-0.4
	s-9.5,0.5-13.8,2.6c-4.1,2-7.6,5.9-8.5,10.5c-0.5,2,0.7,4,2.6,4.6c1.9,0.4,4.2-0.6,4.6-2.6c0.1-0.4,0.1-0.7,0.3-1.1s0.1-0.5,0.2-0.7
	c0,0.1-0.2,0.4,0,0.1c0.2-0.3,0.3-0.6,0.5-0.9c0.1-0.2,0.2-0.3,0.3-0.5c-0.2,0.3-0.1,0,0.1-0.1c0.3-0.3,0.6-0.6,0.9-0.9
	c0.1-0.1,0.7-0.6,0.6-0.6c0.6-0.4,1.3-0.9,2-1.2L93,9c-0.1,0.1-0.5,0.2,0,0s1-0.4,1.5-0.5c0.9-0.3,1.9-0.5,2.9-0.6
	c0.2,0,0.6-0.1,1-0.1s0.9-0.1,1.4-0.1c1-0.1,2.1-0.1,3.2-0.1c4.3,0,8.5,0.1,12.8,0.4c3.9,0.2,7,0.8,10.3,2.8c4.1,2.5,8,5.4,12,8
	c1.8,1,4.1,0.4,5.1-1.4C144.1,15.5,143.5,13.3,141.7,12.3L141.7,12.3z"/>
<path class="st0" d="M85,3.2c-8.6-0.6-17.3-1.9-25.9-0.5c-3.9,0.6-7.6,2-10.9,4.1c-3.4,2.4-6.2,5.4-8.5,8.9c-2.6,3.9-5,8-5.1,12.9
	c0,2.1,1.7,3.7,3.8,3.8c2.1,0,3.7-1.7,3.8-3.8c0-0.9,0.2-1.9,0.5-2.8c0.3-0.9,0.7-1.8,1.2-2.6c1.1-1.9,2.3-3.7,3.6-5.4
	c1.2-1.5,2.5-2.9,4-4.1c1.6-1.1,3.3-2,5.1-2.6c4.5-1.5,8.6-1.6,13.5-1.4S80,10.3,85,10.7c2.1,0,3.7-1.7,3.8-3.8
	C88.7,4.9,87.1,3.2,85,3.2L85,3.2z"/>
<path class="st0" d="M40.8,17c-5.7,0.4-11.2,2.2-16,5.4c-4.5,3-8.7,6.4-12.5,10.1c-4,3.7-7,8.4-8.7,13.6c-1.7,5.6-2.1,11.4-1.2,17.1
	c0.3,2.9,1.1,5.7,2.4,8.3c1.3,2.7,3.6,4.7,6.3,5.8c1.8,0.8,4.2-0.8,4.6-2.6c0.5-2-0.7-4-2.6-4.6c0.8,0.3-0.8-0.6-0.1-0.1
	c-0.3-0.3-0.6-0.5-0.9-0.8c-0.4-0.4,0.3,0.4,0-0.1c-0.1-0.2-0.3-0.4-0.4-0.6L11.4,68c0,0-0.4-0.9-0.3-0.5S11,67.2,11,67.1
	c-0.1-0.2-0.2-0.4-0.2-0.7c-0.1-0.4-0.2-0.8-0.4-1.2c-0.3-1.2-0.5-2.4-0.7-3.6c-0.6-4.4-0.3-8.9,1-13.2c1.2-3.9,3.4-7.5,6.4-10.3
	c3.1-3,6.5-5.8,10-8.4c4-3,8.7-4.9,13.7-5.4c2.1,0,3.7-1.7,3.8-3.8C44.5,18.8,42.9,16.8,40.8,17L40.8,17z"/>
<path class="st0" d="M4.6,67.5C1.6,70.3,1.2,74.2,0.8,78S0.1,85.7,0,89.5c-0.1,6.3,0.5,13.3,4,18.8c1.9,3,4.7,5.4,7.9,6.8
	c3.4,1.4,6.9,2.3,10.6,2.6c7.3,1,14.7,1.2,22,0.5c4.2-0.4,8.4-1.2,12.4-2.4c2.1-0.6,4.2-1.4,6.2-2.3c1.2-0.7,2.2-1.6,3-2.7
	c1.4-1.5,1.4-3.8,0-5.3c-1.3-1.3-4-1.6-5.3,0c-0.5,0.5-0.9,1-1.3,1.5c-0.3,0.5,0.3-0.4,0.4-0.3c-0.1,0.1-0.3,0.2-0.4,0.2
	c-0.7,0.2,1-0.4-0.3,0.1l-0.8,0.3c-0.9,0.3-1.8,0.7-2.8,1c-3.1,1-6.2,1.7-9.3,2.1c-6.6,0.8-13.2,0.8-19.8,0.1
	c-1.5-0.1-2.9-0.3-4.4-0.5c0.7,0.1-0.6-0.1-0.6-0.1l-1.2-0.2c-0.8-0.1-1.6-0.3-2.4-0.5c-2.5-0.5-4.7-1.8-6.5-3.6
	c-0.2-0.2-0.4-0.4-0.6-0.7c-0.4-0.5,0.4,0.7-0.2-0.2c-0.3-0.6-0.7-1.1-1-1.7c-0.1-0.3-0.3-0.5-0.4-0.8c0.3,0.7-0.2-0.4-0.2-0.4
	c-0.3-0.7-0.5-1.4-0.7-2.1S8.1,98.6,8,98c-0.1-0.4-0.1-0.7-0.2-1.1c-0.2-1.2,0,0.4,0-0.3c-0.2-1.4-0.3-2.9-0.3-4.3
	C7.5,88.4,7.6,84.6,8,80.9c0.1-1,0.2-1.9,0.3-2.9c0-0.5,0.1-1,0.2-1.4c-0.1,0.7,0.1-0.3,0.1-0.5c0.1-0.7,0.3-1.5,0.5-2.2
	c-0.2,0.7,0.2-0.4,0.2-0.4c0.2-0.4,0.3-0.4,0-0.1c0.2-0.2,0.3-0.4,0.5-0.5c1.5-1.5,1.5-3.8,0-5.3S6,66.1,4.6,67.5L4.6,67.5L4.6,67.5
	z"/>
<path class="st0" d="M34.9,92c0.2-0.6-0.2,0.1,0.2-0.4c0.2-0.3,0.3-0.5,0.5-0.8c-0.2,0.3,0.1-0.1,0.2-0.2s0.2-0.3,0.4-0.4l0.5-0.5
	c0,0,0.6-0.5,0.3-0.3c1.3-0.9,2.7-1.6,4.1-2.2c3.8-1.5,7.6-2.7,11.6-3.6c2-0.5,4-0.9,6-1.4c1.8-0.5,3.7-0.8,5.6-0.8
	c0.2,0,0.5,0,0.7,0c-0.7,0.2-2.6-3.3-1.7-1.7c0-0.1,0-0.6,0-0.2c0,0.2,0,0.4,0,0.6c0.1,1.1,0.2,2.2,0.4,3.3c0.3,1.7,0.8,3.5,1.4,5.1
	c1.6,4.1,4.1,7.7,7.4,10.7c1.5,1.4,3.8,1.4,5.3,0c1.5-1.5,1.5-3.8,0-5.3c-0.7-0.6-1.4-1.2-2-1.9c-0.4-0.4-0.7-0.8-1-1.2
	c0,0.1,0.2,0.3,0,0s-0.4-0.5-0.6-0.8c-0.5-0.8-1-1.6-1.4-2.4c-0.2-0.5-0.5-0.9-0.7-1.4c0,0.1,0.2,0.4,0,0s-0.2-0.6-0.3-0.9
	c-0.3-0.9-0.5-1.7-0.7-2.6c0-0.3-0.1-0.5-0.1-0.8c0-0.1-0.1-0.7,0-0.2c-0.1-0.5-0.1-1-0.1-1.6c0-1.2-0.2-2.5-0.8-3.6
	c-0.8-1.3-2.1-2.2-3.6-2.5c-4.9-0.8-10,0.9-14.7,2c-4.7,1.1-9.4,2.5-13.9,4.4c-4.4,1.9-8.4,4.7-10,9.5c-0.5,2,0.6,4,2.6,4.6
	C32.3,95.1,34.3,93.9,34.9,92z"/>
<path class="st0" d="M70.1,77.1c-0.6-4.7,0.1-9.4,2-13.7c0.7-1.6-0.5-3.4-1.7-4.2c-2.5-1.9-4.7-4.1-6.5-6.6
	c-0.5-0.7-0.9-1.4-1.3-2.1s-0.9-1.7-1-1.9c-0.3-0.8-0.6-1.7-0.8-2.6c-0.1-0.4-0.2-0.8-0.3-1.2c-0.1-0.7,0,0.1-0.1-0.6
	c-0.2-1.4-0.1-2.8,0.4-4.2c0.1-0.2,0.1-0.5,0.2-0.7c0.1-0.4,0.2-0.4,0.1-0.2s0.3-0.6,0.4-0.7c0.2-0.3,0.4-0.6,0.6-0.9s0.1-0.2,0,0
	c0.1-0.2,0.3-0.4,0.5-0.6s0.5-0.5,0.8-0.8c0.1-0.1,0.9-0.7,0.4-0.3c0.6-0.4,1.2-0.8,1.8-1.1c-0.6,0.3,0.3-0.1,0.4-0.1
	c0.3-0.1,0.7-0.2,1-0.2c-0.8,0.1,0.4,0,0.6,0c0.4,0,0.8,0,1.2,0.1c2,0.3,3.8-1.9,3.8-3.8c-0.1-2.2-1.6-3.5-3.8-3.8
	c-9.1-1.1-16,8-15.8,16.4c0.3,9.2,6.5,17.2,13.7,22.4l-1.7-4.2c-2.1,5-2.8,10.4-2.2,15.7c0.2,1.9,1.6,3.9,3.8,3.8
	C68.1,80.7,70.3,79.2,70.1,77.1L70.1,77.1z"/>
<path class="st0" d="M54.8,48.9c-2.7,0.6-4.4,1.9-7.3,2.3c0.4-0.1-0.3,0-0.3,0L46,51.2c-0.7,0-1.3,0-2,0c-1.3,0-2.7-0.1-4-0.3
	c-2.4-0.2-4.8-0.6-7.1-1.3c-0.3-0.1-0.7-0.2-1-0.4c0.3,0.1-0.2-0.1-0.2-0.1c-0.3-0.1-0.5-0.3-0.8-0.5c-0.5-0.3,0.3,0.3-0.1-0.1
	c-0.2-0.2-0.4-0.4-0.7-0.6s-0.3-0.4-0.1-0.1c-0.1-0.2-0.3-0.4-0.4-0.6c-0.5-0.9,0.1,0.5-0.1-0.5c-0.6-2-2.6-3.2-4.6-2.6
	c-2,0.6-3.2,2.6-2.6,4.6c0.9,3.1,3.1,5.6,6,7c3.1,1.6,6.6,1.9,10.1,2.4c3,0.5,6.1,0.6,9.1,0.4c1.7-0.1,3.4-0.5,5.1-1
	c1.7-0.6,2.6-1.2,4.3-1.6c2-0.6,3.2-2.6,2.6-4.6C58.9,49.4,56.8,48.2,54.8,48.9L54.8,48.9z"/>
</svg>
