<svg xmlns="http://www.w3.org/2000/svg" viewBox="0 0 141.73 141.73"><defs><style>.cls-1{fill:none;stroke:#1d1d1b;stroke-miterlimit:10;stroke-width:2px;}</style></defs><title>pizza</title><g id="Lag_3" data-name="Lag 3"><path class="cls-1" d="M18,11.14l24.5,58.38V83a2.86,2.86,0,0,0,3,3.45c3.63,0,3.26-2.18,3.26-2.18v-2.9a3.25,3.25,0,0,1,3.12-2.25c2.46,0,3.41.15,3.41,2.11V92.56s1.3,3.19,4,2.76S62.06,93,62.06,93V80"/><path class="cls-1" d="M49.11,86.42,66,127.66v9.58a5.39,5.39,0,0,0,4.5,3c3.23.15,4.07-3.12,4.07-3.12v-4.64l1.85-4.59"/><polyline class="cls-1" points="108.45 49.18 107.14 52.09 74.55 132.53 76.6 127.45"/><path class="cls-1" d="M95.09,45.12v5.44s1.16,2.54,3.41,2.62a3.75,3.75,0,0,0,3.27-2.11V47a3.41,3.41,0,0,1,3.49-2.76c3,.07,3.19,2.47,3.19,2.47v8.63s1.23,3.42,3.7,3a3.75,3.75,0,0,0,3-2.32V35l8.35-21.63S81-13,18.61,12.12"/><path class="cls-1" d="M94.08,37.57s9.87-1.16,13.64.72c0,0,1.6-3.63,7.48-3.34"/><path class="cls-1" d="M45.14,24.06s4.15.44,4,3.2a25.74,25.74,0,0,0,0,4.35s.83,3,3.44,2.47S55.6,32.2,55.6,32.2V22s.14-2.9,3.92-3.05"/><ellipse class="cls-1" cx="70.73" cy="52.36" rx="21.58" ry="20.47"/><path class="cls-1" d="M58.21,76s11.18-5.81,25.27,0"/><path class="cls-1" d="M34.55,19s10.3,2.15,11.18,16S35.26,51.8,35.26,51.8"/><path class="cls-1" d="M23.62,24.06s31.27-21,95.79,0"/><path class="cls-1" d="M92.71,16.91s-5.81,15.8,8.88,20.32"/><path class="cls-1" d="M92.31,88.68S75.82,83,70.73,102.29s7.81,20.38,7.81,20.38"/></g></svg>