<svg xmlns="http://www.w3.org/2000/svg" viewBox="0 0 141.73 141.73"><defs><style>.cls-1,.cls-2,.cls-3{fill:none;stroke:#1d1d1b;stroke-width:2px;}.cls-1,.cls-3{stroke-miterlimit:10;}.cls-2,.cls-3{stroke-linecap:round;}.cls-2{stroke-linejoin:round;}</style></defs><title>planet</title><g id="Lag_3" data-name="Lag 3"><path class="cls-1" d="M35.82,75.36c0-.43,0-.86,0-1.29a33.45,33.45,0,1,1,0,1.29Z"/><path class="cls-2" d="M45.3,57.34c1.16,0,2.17-.62,3.31-.59"/><path class="cls-2" d="M43,61.81c.47-.91,1.58-1.24,2.48-1.6a3.17,3.17,0,0,1,1-.35c.34,0,.86-.25,1.17-.19"/><path class="cls-2" d="M39.85,67.65A3.17,3.17,0,0,0,41.8,67a4.44,4.44,0,0,1,2.14-.53"/><path class="cls-2" d="M39.47,71a5.78,5.78,0,0,0,2.19-.39,10.84,10.84,0,0,1,1.49-.38,11.06,11.06,0,0,0,1.77-.75A3.84,3.84,0,0,1,46.47,69"/><path class="cls-2" d="M38.69,76.41c.38,0,.65-.15,1-.21a5.54,5.54,0,0,0,.91-.13,11.36,11.36,0,0,0,2.47-.56c.67-.38,1.4-.65,2.07-1,.33-.2.58-.59.92-.75a3.61,3.61,0,0,1,1-.23"/><path class="cls-2" d="M39.47,80.3c1.05-.61,2-1.43,3-2a3.82,3.82,0,0,1,1.13-.51,3,3,0,0,1,.9,0c.26.07.37.23.62.34L45.3,78"/><path class="cls-2" d="M40.44,84.77a16.2,16.2,0,0,0,2.09,0,5,5,0,0,0,2-.88c.63-.43,1.33-.73,1.95-1.16a5,5,0,0,1,1.75-1.08"/><path class="cls-2" d="M43.36,89.25c1.74,0,3.58-1.13,5-2.14a10,10,0,0,1,2.12-1.25c.36-.14.73-.1,1.1-.25a2.29,2.29,0,0,1,1.16-.25"/><path class="cls-2" d="M45.89,93.14A12,12,0,0,0,51,91.85,20.25,20.25,0,0,1,53,91a10.34,10.34,0,0,1,2.24-.8"/><path class="cls-2" d="M52.11,99.17c.7,0,1.41,0,2.1,0a8.55,8.55,0,0,0,1.41-.35c.45-.11.9-.18,1.36-.28s1-.4,1.46-.54a8.48,8.48,0,0,0,1.36-.59c.24-.12.48-.22.72-.33.43-.19.72-.49,1.13-.7.79-.4,1.57-.74,2.34-1.21.31-.2.67-.27,1-.47s.35-.49.76-.4"/><path class="cls-2" d="M56.39,102.29a9.92,9.92,0,0,0,2,0c.36-.08.71-.22,1.06-.32s.53-.07.79-.16a9,9,0,0,0,1-.49l1.75-.76a34.24,34.24,0,0,0,3.12-1.91c.73-.41,1.71-.42,2.33-1"/><path class="cls-2" d="M63.21,103.84c.58.12,1.41-.46,1.94-.65s1.11-.36,1.66-.54a25.52,25.52,0,0,0,2.82-1c1.09-.47,2.26-.82,3.36-1.31.55-.24,1.1-.41,1.66-.63s1-.61,1.59-.54"/><path class="cls-2" d="M70.79,104.62a4.56,4.56,0,0,0,2.44-.6c.7-.39,1.23-1,1.94-1.44a8.84,8.84,0,0,1,2.09-1,11.94,11.94,0,0,1,2.19-.43,8.63,8.63,0,0,0,1.66-.36,4.48,4.48,0,0,0,1.94-1.39c.6-.59,1.36-1,2-1.56a5.41,5.41,0,0,1,1-.86,4.93,4.93,0,0,0,.9-.5"/><path class="cls-1" d="M36.28,74.79C12.08,85.48,5.07,93.72,3.09,98a3.17,3.17,0,0,0,1.8,4.3c8.24,2.93,9.78-1.4,10-4.38A3.19,3.19,0,0,0,12,94.63C8.59,94.33,5.68,97,4,99a3.15,3.15,0,0,0,1.1,4.89c9.72,4.37,39.7-5.57,39.7-5.57s57.21-18,84-39.89a.29.29,0,0,1,.47.23v1.19a.3.3,0,0,0,.44.26c2.55-1.55,15-9.64,7.15-15.69-8.07-6.19-24.07.27-26.53,1.32a.29.29,0,0,0-.13.43l.75,1.12a.29.29,0,0,1-.17.44L93,52.36"/><path class="cls-1" d="M128.39,57.94s-3-6.74-7.38-6.74-10.22-.31-10.51-4.39"/><path class="cls-3" d="M118,50.92s11.12-9.84,12-4c.83,5.49-5.72,1.3-5.72,1.3"/><path class="cls-1" d="M27.35,22.41s11.68.87,8.47,12.7c0,0,4.23-12.7,9.48-12.7,0,0-7.59-1.32-9.48-8.76C35.82,13.65,37,22.41,27.35,22.41Z"/><line class="cls-1" x1="12.03" y1="52.38" x2="12.03" y2="67.07"/><line class="cls-1" x1="5.9" y1="56.75" x2="19.03" y2="61.81"/><line class="cls-1" x1="19.03" y1="54.81" x2="5.9" y2="64.88"/><circle class="cls-1" cx="85.15" cy="24.38" r="2.08"/><circle class="cls-1" cx="48.03" cy="129.24" r="2.14"/></g></svg>