<svg xmlns="http://www.w3.org/2000/svg" viewBox="0 0 141.73 141.73"><defs><style>.cls-1,.cls-2,.cls-3{fill:none;}.cls-1,.cls-2,.cls-3,.cls-4{stroke:#1d1d1b;stroke-miterlimit:10;}.cls-1{stroke-width:2px;}.cls-3{stroke-width:0.75px;}.cls-4{fill:#1d1d1b;}</style></defs><title>vinyl</title><g id="Lag_3" data-name="Lag 3"><circle class="cls-1" cx="70.87" cy="69.98" r="65.24"/><path class="cls-2" d="M11.78,70s-.6-28.73,22.84-46.36c0,0,18-20.75,53.72-9.94"/><path class="cls-3" d="M95.84,19.26s27.56,14.48,30,39.07"/><path class="cls-3" d="M95.84,23.1s22.33,12.38,26.69,35.23"/><path class="cls-3" d="M94.45,26.94s20.23,10.11,24.94,31.39"/><path class="cls-3" d="M93.58,30.25s15.87,5.93,21.8,27.21"/><path class="cls-3" d="M92.53,33.74s15.17,7.32,19.19,23.72"/><path class="cls-3" d="M92.53,36.53s14.65,10.29,15.7,20.93"/><path class="cls-3" d="M49.92,123S14.88,106.67,11.77,79"/><path class="cls-3" d="M49.92,118.64S21.53,104.71,16,79"/><path class="cls-3" d="M51.69,114.32S26,102.94,20,79"/><path class="cls-3" d="M52.8,110.59S32.62,103.92,25.08,80"/><path class="cls-3" d="M54.13,106.67S34.84,98.43,29.74,80"/><path class="cls-3" d="M54.13,103.53S35.5,92,34.17,80"/><path class="cls-2" d="M131,69.93s-.24,28.74-24.18,45.68c0,0-18.57,20.22-54,8.37"/><circle class="cls-1" cx="70.87" cy="69.57" r="22.99"/><circle class="cls-4" cx="70.87" cy="69.57" r="2.37"/></g></svg>